<?xml version="1.0" encoding="UTF-8"?><svg xmlns="http://www.w3.org/2000/svg" viewBox="0 0 359.18 359.31"><defs><style>.c{fill:#939393;}.d{fill:#2b495b;}.e{fill:#b6b6b5;}.f{fill:#6cc8e8;}.g{fill:#603914;}.h{fill:#808181;}.i{fill:#cdcccc;}.j{fill:#e3e8f6;}.k{fill:#6a6a69;}.l{fill:#4aaace;}.m{fill:#484848;}.n{fill:#f2f2f2;}</style></defs><g id="a"><g><path class="m" d="M251.27,203.99c.04,1.12,.12,2.24,.12,3.36,0,44.13,.01,88.25,0,132.38,0,12.28-7.24,19.58-19.42,19.58-70.8,0-141.59,0-212.39,0-12.27,0-19.57-7.25-19.58-19.43C0,241.03,0,142.18,0,43.33c0-11.92,7.38-19.23,19.39-19.24,19.44-.01,38.89,0,58.33,0,1.23,1.01,1.06,2.45,1.1,3.79,.07,2.49-.03,4.97,.05,7.46,.18,5.85,2.66,9.25,8.09,11.23,1.26,.46,2.72,.59,3.45,1.99,.63,7.89,1.46,15.77-.47,23.61-1.89,1.31-4.07,.99-6.15,.99-17.68,.03-35.36,0-53.04,.02-5.53,0-5.58,.07-5.6,5.65-.05,21.91,.08,43.83-.06,65.75-.25,7.86,.05,15.71,.06,23.56,.02,53.12,0,106.25,.01,159.37q0,6.63,6.52,6.64c53.12,0,106.24-.01,159.36,.01,8.1,0,16.21,.26,24.31,.07,2.61-.22,5.23,0,7.85-.11,1.99-.08,2.94-1.05,3.01-3.01,.05-1.37,.06-2.74,.06-4.11,0-33.42,0-66.83,0-100.25,0-2.12-.12-4.24,.21-6.34,.31-1.9,1.76-2.5,3.36-3.04,3.05-1.04,6.28-1.52,9.18-2.99,3.06-2.88,5.89-6,8.97-8.85,.87-.81,1.55-2.41,3.28-1.54Z"/><path class="m" d="M173.68,24.1c19.69,0,39.37-.03,59.06,0,11.16,.02,18.64,7.58,18.65,18.83,.02,32.02,0,64.05,.01,96.07,0,1.37,.08,2.74,.12,4.1,.24,1.14-.47,1.89-1.16,2.59-6.62,6.71-13.26,13.4-20.02,19.97-1.1,1.07-2.68,3.02-3.8-.18-.41-2.11-.28-4.23-.28-6.35,0-26.56,0-53.12,0-79.67q0-6.26-6.13-6.28c-17.45,0-34.91,0-52.36-.02-2.09,0-4.26,.32-6.19-.91-.54-.56-.89-1.26-.91-2-.21-7.2-.71-14.41,.29-21.59,.59-1.31,1.89-1.43,3.05-1.83,5.88-2.01,8.34-5.66,8.6-11.93,.15-3.61-1.1-7.39,1.09-10.8Z"/><path class="f" d="M173.68,24.1c-.03,3.72-.08,7.45-.09,11.17-.03,7.62-4.3,12.24-11.92,12.86-3.74,1.93-7.74,.76-11.62,.97-2.36,0-4.73,.13-7.08-.23-9.7-1.63-19.15-3.94-27.86-8.83-12.67-7.12-22.54-16.93-29.5-29.68-.47-.86-1.03-1.71-1.03-2.76C88.77,2.69,94.2,.22,100.57,.18c16.06-.11,32.13,.37,48.17-.17,12.44-.42,25.11,9.77,24.94,24.09Z"/><path class="l" d="M251.27,203.99c-3.7,3.67-7.4,7.35-11.09,11.02-1.41,.58-2.42-.22-3.3-1.09-8.88-8.85-18.41-17.02-26.95-26.22-.34-.37-.61-.78-.81-1.24-.23-.77-.12-1.57,.4-2.1,4.56-4.67,8.57-9.91,14.17-13.49,1.33-.27,2.45,.22,3.47,1,8.4,6.33,19.91,5.42,28.42-3.21,8.31-8.43,16.73-16.76,25.1-25.12,7.76-7.75,15.5-15.52,23.27-23.25,1.22-1.21,2.26-2.7,4.12-3.09,1.24-.02,2.08,.76,2.87,1.54,3.55,3.48,7.07,7,10.55,10.55,.69,.7,1.42,1.43,1.3,2.56-.91,1.01-1.78,2.07-2.74,3.03-21.92,21.94-43.86,43.87-65.78,65.81-1.05,1.05-2.01,2.2-3.01,3.3Z"/><path class="f" d="M308.49,117.55c-1.49,.52-2.34,1.81-3.39,2.85-16.28,16.25-32.53,32.52-48.8,48.78-5.12,5.12-10.99,8.22-18.58,7.65-4.03-.3-7.44-1.77-10.66-3.92-1.05-.7-1.9-1.6-3.29-1.41-.08-2.6,1.76-3.59,3.74-4.45,8.33-7.64,16.27-15.68,23.99-23.94,11.4-11.31,22.8-22.62,34.21-33.92,2.47-2.45,4.99-4.85,7.49-7.28,2.92,1.12,4.55,3.76,6.65,5.8,2.93,2.86,6.02,5.58,8.56,8.82,.14,.34,.15,.68,.06,1.03Z"/><path class="l" d="M84.57,7.6c3.09,3.25,4.74,7.46,7.43,11.01,12.46,16.44,28.75,26.13,49.22,28.77,.34,.04,.64,.34,.96,.52-1.09,1.33-2.64,1.29-4.11,1.29-12.05,.02-24.09,.16-36.14-.06-4.08-.25-8.28,1.02-12.21-1.01-8.11-1.11-11.89-5.45-11.92-13.67-.01-3.45-.06-6.91-.09-10.36,.29-6.32,2.24-11.96,6.85-16.49Z"/><path class="f" d="M311.22,83.9c4.73-4.91,9.11-10.25,14.72-14.19,8.86-6.23,20.64-4.82,27.26,2.96-.3,1.61-1.62,2.46-2.65,3.5-7.77,7.89-15.73,15.59-23.41,23.58-.57,.21-1.03-.01-1.45-.37-3.81-4.11-7.9-7.95-11.8-11.97-1.02-1.05-2.36-1.89-2.66-3.5Z"/><path class="l" d="M326.96,99.61c.21-.56,.28-1.28,.67-1.67,8.52-8.43,16.67-17.23,25.57-25.28,7.88,8.44,8,20.53,.18,28.83-4.15,4.41-8.45,8.69-12.69,13.02-4.88-3.82-8.89-8.55-13.24-12.91-.51-.51-.94-1.18-.49-2Z"/><path class="m" d="M326.96,99.61c3.92,3.97,7.85,7.93,11.75,11.93,.84,.86,2.03,1.52,1.98,2.99-6.07,5.66-11.41,12.07-17.89,17.32-4.52-5.01-9.26-9.8-14.31-14.29l-.23-.71c-.4-1.16,.38-1.88,1.05-2.57,4.66-4.77,9.38-9.48,14.13-14.14,.69-.67,1.41-1.44,2.56-1.13l.94,.61Z"/><path class="k" d="M326.02,99c-6.07,5.79-12.09,11.63-17.75,17.84-5.32-4.67-10.2-9.79-15.05-14.93,6-6,12-12,18-18,5.04,4.93,10.31,9.63,14.79,15.1Z"/><path class="n" d="M227.53,167.05c-1.25,1.48-2.5,2.97-3.74,4.45-4.87,4.77-10.19,9.11-14.21,14.71,.53,1.38,.05,2.68-.32,3.98-2.62,9.28-5.27,18.56-7.92,27.83-.51,1.79-1.01,3.62-3.04,4.38-2.08,.58-4.21,.4-6.32,.4-23.92,.01-47.84,0-71.77,.02-4.83,0-5.2,.38-5.29,4.55-.09,4.66,.23,5.03,5.07,5.03,26.79,.02,53.58,0,80.36,0q7.45,0,8.25-7.11c.29-1.17,1.01-2.03,2.13-2.4,4.83-1.58,9.67-3.1,14.66-4.11,.75-.15,1.48,.06,2.06,.61,0,37.52-.02,75.04,.08,112.56,0,2.8-.66,3.73-3.48,3.45-2.84-.28-5.72-.14-8.59-.18-9.94-.41-19.82-1.09-29.61-3.14-21.53-4.5-41.78-12.25-60.74-23.35-1.29-.75-4.27-1.08-2.38-3.99,2.05-.74,4.19-.5,6.29-.5,24.64-.02,49.29,0,73.93-.02,4.83,0,5.25-.41,5.35-4.51,.11-4.73-.19-5.08-5-5.08-27.63-.01-55.26-.02-82.89,0-4.82,0-4.82,.04-5.82,4.31-.39,1.37-1.37,1.89-2.55,1.18-6.28-3.78-12.41-7.77-17.08-13.59-.69-5.71-.19-11.44-.32-17.16-.1-4.47-.24-4.63-4.61-4.72-5.72-.13-11.45,.33-17.16-.27-1.14-.26-2.01-.93-2.71-1.83-4.88-6.25-9.81-12.46-14.05-19.17-.91-1.45-2.46-3.25,.31-4.6,7.71-.78,15.43-.26,23.14-.32,3.11-.02,6.23,.13,9.34,0,5.69-.22,5.71-.22,5.71-6,.01-11.57,.02-23.15,0-34.72,0-4.66-.22-4.88-4.8-4.89-11.45-.03-22.89-.01-34.34,0q-6.29,0-6.44,6.37c-.18,7.22,.19,14.44,.04,21.65-.03,1.74,.13,3.49-.48,5.17-1.64,2.16-2.32,.07-2.87-.84-1.74-2.87-3.21-5.9-4.58-8.97-8.21-18.27-13.89-37.27-16.2-57.22-.56-4.8-.4-9.65-.85-14.46-.04-23.44-.04-46.87-.18-70.31-.02-3.06,1.88-2.27,3.44-2.27,20.82-.02,41.64,0,62.46,0,1.22,1.18,1.02,2.74,1.05,4.21,.07,2.73-.08,5.47,.06,8.21,.45,8.87,7.49,16.15,16.33,16.35,12.31,.27,24.62,.27,36.93,0,8.84-.19,15.89-7.48,16.33-16.35,.14-2.73,0-5.47,.06-8.21,.04-1.47-.16-3.02,1.05-4.21,20.82,0,41.64,.06,62.47-.08,2.85-.02,3.45,.75,3.44,3.5-.08,30.55-.02,61.1,0,91.65Z"/><path class="j" d="M24.07,144.57c.7,5.35,1.44,10.69,2.1,16.04,2.13,17.29,6.86,33.88,13.57,49.92,2.34,5.6,4.81,11.15,8.04,16.32,1.85,1.94,1.22,4.39,1.16,6.62-.07,3.07,.33,5.39,4.21,5.16,.84-.05,1.69,.28,2.23,1.06,2.5,6.19,7.14,10.95,10.86,16.33,1.76,2.55,3.73,4.94,5.61,7.4-1.21,1.41-2.9,1.2-4.47,1.22-4.44,.07-8.89,0-13.33,.03-4.77,.04-4.93,.22-4.99,5.06,0,.49,0,.99-.06,1.48,0,11.56,.1,23.12,.1,34.68,0,3.95,.36,4.31,4.25,4.32,11.81,0,23.61,.07,35.42,.11,.61-.09,1.24-.13,1.85-.07,3.16,.33,4.1-1.3,4.04-4.2-.09-4.7-.07-9.4,0-14.11,.02-1.57-.19-3.27,1.22-4.48,5.26,3.26,9.52,7.89,14.91,10.99,.96,.56,1.9,1.16,2.85,1.74,1.09,3.01,2.96,4.81,6.43,4.37,.7-.09,1.43,.29,1.89,.96,8.35,5.7,17.44,9.98,26.69,13.96,15.21,6.55,31.08,10.87,47.4,13.43,5.47,.86,10.98,1.92,16.59,1.72,.97-.03,2.02-.22,2.82,.61-1.12,.04-2.24,.12-3.36,.12-61.34,0-122.68-.03-184.02,.08-3.41,0-4.23-.85-4.22-4.23,.11-60.97,.08-121.94,.08-182.91,0-1.24,.08-2.49,.12-3.73Z"/><path class="c" d="M161.61,71.99c0,3.86,.03,7.72-.01,11.58-.12,10.44-7.78,18.23-18.16,18.31-11.83,.09-23.67,.09-35.5,0-10.36-.08-18.03-7.88-18.15-18.31-.05-3.86-.01-7.72-.01-11.58-.02-7.95-.03-15.91-.05-23.86,4.03,0,8.05,0,12.08,0,1.13,1.2,1.1,2.72,1.1,4.2,0,6.44,.14,12.88-.06,19.31,.1,3.61-.07,7.22,.07,10.83,.18,4.52,1.7,6.21,6.11,6.27,11.09,.16,22.18,.15,33.26,0,4.46-.06,5.99-1.73,6.18-6.21,.15-3.61-.03-7.23,.08-10.84-.2-6.45-.07-12.91-.07-19.36,0-1.48-.04-3.01,1.1-4.21,4.03,0,8.06,0,12.08,0-.02,7.95-.04,15.9-.06,23.86Z"/><path class="k" d="M199.02,221.63c3.22-11,6.44-21.99,9.68-32.99,.24-.82,.58-1.62,.88-2.43,9.02,8.77,18.02,17.55,27.06,26.3,1.04,1,1.78,2.5,3.54,2.5-3.97,2.27-8.72,2.26-12.74,4.4-6.16,1.19-12.14,2.96-18.03,5.12-2.98,2.24-6.63,2.58-10.07,3.45-1.8,.45-2.49-.67-2.19-2.38,.26-1.49,.77-2.87,1.87-3.96Z"/><path class="m" d="M101.76,71.99c.02-7.95,.04-15.91,.05-23.86,13.46-.07,26.92-.15,40.38-.22,2.47,.08,4.93,.15,7.4,.23,.02,7.95,.04,15.9,.05,23.86-1.44,1.27-3.22,1.18-4.95,1.18-12.66,.03-25.32,.03-37.99,0-1.73,0-3.51,.09-4.95-1.18Z"/><path class="e" d="M161.24,161.77c-14.59,0-29.18-.07-43.77,.06-2.87,.03-3.87-.67-3.82-3.71,.14-8.32,0-8.32,8.13-8.32,27.93,0,55.86,.05,83.79-.07,3.05-.01,4.08,.72,4.01,3.9-.18,8.13-.02,8.13-8.31,8.13-13.34,0-26.68,0-40.03,0Z"/><path class="e" d="M121.96,305.52c-.98-.03-1.95-.08-2.93-.08q-5.19-.03-5.39-5.24,.25-6.73,7.09-6.73c28.29,0,56.59,.05,84.88-.07,3.1-.01,4.03,.82,3.96,3.95-.17,8.09-.02,8.09-7.97,8.09-26.55,.03-53.09,.06-79.64,.09Z"/><path class="e" d="M199.02,221.63c-.39,1.78-.78,3.56-1.26,5.72,3.99-.96,7.82-1.89,11.65-2.82q.33,9.08-8.7,9.08c-27.68,0-55.36-.05-83.05,.07-3.04,.01-4.08-.71-4.01-3.9,.18-8.13,.02-8.14,8.31-8.14,25.69,0,51.37,0,77.06,0Z"/><path class="e" d="M158.79,125.85c7.85,0,15.71,.08,23.56-.05,2.37-.04,3.23,.58,3.26,3.11,.1,8.9,.2,8.9-8.65,8.9-13.96,0-27.93-.05-41.89,.05-2.53,.02-3.45-.6-3.45-3.31,0-8.72-.12-8.72,8.47-8.72,6.23,0,12.47,0,18.7,0Z"/><path class="e" d="M158.43,209.66c-7.85,0-15.71-.08-23.56,.05-2.39,.04-3.22-.63-3.24-3.13-.1-8.89-.2-8.89,8.67-8.89,13.96,0,27.93,.06,41.89-.05,2.55-.02,3.43,.64,3.44,3.33,0,8.7,.11,8.7-8.49,8.7-6.23,0-12.47,0-18.7,0Z"/><path class="e" d="M158.71,281.49c-7.85,0-15.71-.08-23.56,.04-2.43,.04-3.52-.44-3.53-3.23-.02-8.79-.14-8.79,8.78-8.79,13.84,0,27.68,.09,41.52-.07,3.06-.04,3.75,.96,3.71,3.82-.11,8.22,0,8.22-8.21,8.22-6.23,0-12.47,0-18.7,0Z"/><path class="e" d="M203.26,137.82c-5.73,0-5.79,0-5.72-6.9,.06-6.07-.98-5.04,7.16-5.05,5.73,0,4.75-.92,4.77,7.06,.02,5.77,.71,4.79-6.22,4.89Z"/><path class="e" d="M203.62,269.52q5.88,0,5.88,6.75c0,5.23,0,5.28-7.03,5.21-5.94-.06-4.87,.97-4.92-7.29-.03-5.5-.57-4.57,6.08-4.66Z"/><path class="n" d="M101.76,71.99c15.96,0,31.92,0,47.88,0,0,3.73,.05,7.46-.01,11.18-.07,4.47-2.21,6.72-6.6,6.74-11.55,.06-23.11,.06-34.66,0-4.39-.02-6.52-2.27-6.6-6.74-.06-3.73-.01-7.45-.01-11.18Z"/></g></g><g id="b"><g><path class="d" d="M65.33,263.97c.01-5.97,.02-11.94,.03-17.91,.26-.32,.64-.36,1.01-.36,1.75-.02,3.5-.02,5.26,0,.37,0,.75,.04,1.01,.36,.01,5.97,.02,11.94,.03,17.91h-7.35Z"/><path class="h" d="M65.32,181.13c-10.91,0-21.82-.01-32.74-.03-1.58,0-1.37,.23-1.39-1.42-.01-1.5,0-2.99,0-4.49,0-1.29,0-1.26,1.34-1.29,1.35-.04,2.7,.17,4.04-.13,.39-.36,.87-.32,1.34-.32,1.49-.01,2.97-.02,4.46,0,.73,0,1-.29,1.03-1.02,.03-.85-.29-1.76,.33-2.54,.33,1.06,.12,2.15,.13,3.23,0,.63,.2,.81,.82,.8,1.8-.03,3.6-.04,5.4,0,.71,.02,.84-.28,.83-.9,0-.91-.13-1.83,.09-2.73,.57,.6,.35,1.35,.34,2.03,0,.83,.3,1.15,1.13,1.14,1.45-.03,2.91-.02,4.36,0,.47,0,.96-.03,1.35,.32l.07-.03c.58,.26,1.19,.09,1.79,.12,3.52,.17,7.02-.43,10.53-.2,2.73,.18,5.46,.2,8.2,.2,.33,0,.68,.12,.98-.12l.07,.03c.39-.35,.88-.31,1.35-.32,1.49-.01,2.98-.02,4.46,0,.74,0,1.01-.3,1.03-1.03,.01-.72-.24-1.5,.34-2.13,.22,.9,.09,1.82,.09,2.73,0,.62,.12,.92,.83,.9,1.8-.05,3.6-.04,5.4,0,.62,.01,.81-.17,.82-.8,.02-1.08-.2-2.17,.13-3.23,.58,.67,.31,1.48,.34,2.23,.05,1.26,.07,1.31,1.33,1.32,1.38,0,2.77,0,4.15,0,.47,0,.96-.04,1.34,.32,1.37,.3,2.77,.13,4.15,.11,.95-.02,1.32,.18,1.26,1.21-.1,1.59-.08,3.2,0,4.79,.05,.96-.19,1.25-1.21,1.25-10.57-.04-21.15-.03-31.72-.02-.41,0-.82,.01-1.22,.02-2.46,.51-4.91,.51-7.37,0Z"/><path class="h" d="M101.43,195.41c1.45,.28,2.91,.1,4.36,.1,.78,0,1.07,.18,1.04,1.01-.06,1.7-.07,3.4,0,5.1,.04,.88-.18,1.14-1.11,1.14-10.61-.04-21.21-.02-31.82-.02-.41,0-.82,.01-1.22,.02-.27,.24-.6,.3-.95,.3-1.82,.02-3.65,.02-5.47,0-.34,0-.67-.07-.95-.3-10.91,0-21.82-.01-32.73-.03-1.58,0-1.38,.22-1.39-1.42-.01-1.63,.03-3.26-.02-4.89-.02-.74,.25-.9,.94-.91,1.49-.01,2.98,.17,4.46-.11,.39-.36,.87-.31,1.34-.32,1.49-.01,2.97-.02,4.46,0,.73,0,1-.29,1.03-1.02,.03-.85-.29-1.76,.33-2.54,.33,1.06,.12,2.15,.13,3.22,0,.64,.22,.81,.82,.79,1.8-.03,3.59-.04,5.39,0,.7,.02,.85-.26,.84-.89,0-.91-.13-1.82,.09-2.73,.57,.6,.35,1.35,.34,2.03,0,.83,.3,1.16,1.13,1.14,1.45-.03,2.91-.02,4.36,0,.47,0,.96-.03,1.35,.32l.07-.03c.51,.27,1.06,.1,1.59,.12,3.58,.17,7.16-.42,10.73-.2,2.73,.17,5.46,.2,8.2,.2,.33,0,.68,.12,.98-.12l.07,.03c.39-.35,.88-.31,1.35-.32,1.49-.01,2.98-.02,4.46,0,.74,0,1.01-.3,1.02-1.03,.01-.72-.24-1.5,.34-2.13,.22,.9,.09,1.82,.09,2.73,0,.63,.14,.91,.84,.89,1.8-.04,3.59-.05,5.39,0,.73,.02,.81-.29,.82-.9,.02-1.04-.19-2.09,.13-3.12,.58,.67,.31,1.48,.34,2.23,.05,1.26,.07,1.31,1.32,1.32,1.38,0,2.77,0,4.15,0,.47,0,.96-.04,1.34,.32Z"/><path class="i" d="M65.32,202.76c2.45,0,4.91,0,7.36,0,0,13.82-.01,27.64-.02,41.47,0,.61-.01,1.22-.02,1.83-2.43-.14-4.85-.14-7.28,0,0-9.71-.01-19.42-.02-29.14,0-4.72-.01-9.44-.02-14.16Z"/><path class="i" d="M79.75,173.75c-.19,.38-.54,.21-.81,.21-6.63,.01-13.26,.01-19.88,0-.27,0-.62,.17-.81-.21,2.07,0,4.14-.02,6.21,.03,.75,.02,.89-.29,.89-.96-.02-4.11,0-8.22-.03-12.33,0-.81,.22-1.06,1.03-1.03,1.8,.06,3.6,.05,5.4,0,.71-.02,.93,.21,.92,.92-.03,4.08,.02,8.15-.04,12.23-.01,.97,.3,1.19,1.21,1.16,1.97-.07,3.94-.03,5.91-.04Z"/><path class="i" d="M79.75,195.38c-.19,.37-.54,.21-.82,.21-6.62,.01-13.25,.01-19.87,0-.27,0-.62,.16-.82-.21,2.07,0,4.14,0,6.21,.03,.63,.01,.9-.14,.9-.84-.03-4.48-.03-8.95-.04-13.43,2.46,0,4.91,0,7.37,0,0,4.48,0,8.95-.04,13.43,0,.7,.27,.85,.9,.84,2.07-.03,4.14-.02,6.21-.02Z"/><path class="g" d="M43.73,191.53c-.01,1.05-.05,2.09-.03,3.14,.01,.55-.14,.79-.73,.78-2.13-.04-4.26-.03-6.39-.04,0-1.19-.03-2.38,0-3.57,.06-1.96,1.59-3.49,3.49-3.55,1.86-.07,3.39,1.29,3.66,3.24Z"/><path class="g" d="M101.43,195.41c-2.13,0-4.26,0-6.39,.04-.6,.01-.74-.23-.73-.78,.02-1.05-.02-2.09-.03-3.14,.27-1.94,1.81-3.31,3.66-3.24,1.91,.07,3.43,1.6,3.49,3.55,.04,1.19,0,2.38,0,3.57Z"/><path class="g" d="M58.18,195.41c-2.13,.01-4.27,0-6.4,.04-.61,.01-.73-.25-.72-.79,.01-.91-.04-1.82-.06-2.73,.17-2.21,1.7-3.71,3.7-3.64,2.03,.07,3.47,1.66,3.49,3.86,0,1.09,0,2.17,0,3.26Z"/><path class="g" d="M87,191.93c-.02,.91-.08,1.82-.06,2.73,0,.54-.11,.8-.72,.79-2.13-.04-4.26-.03-6.4-.04,0-1.09-.01-2.17,0-3.26,.02-2.2,1.46-3.78,3.49-3.86,2-.07,3.53,1.43,3.7,3.64Z"/><path class="g" d="M58.18,173.78c-2.13,.01-4.27,0-6.4,.05-.62,.01-.73-.26-.72-.79,.01-.91-.04-1.82-.06-2.74,.17-2.2,1.72-3.72,3.7-3.63,2.04,.09,3.46,1.66,3.48,3.86,0,1.08,0,2.17,0,3.25Z"/><path class="g" d="M87,170.3c-.02,.91-.07,1.82-.06,2.74,0,.53-.1,.8-.72,.79-2.13-.04-4.27-.04-6.4-.05,0-1.08-.02-2.17,0-3.25,.02-2.2,1.44-3.77,3.48-3.86,1.98-.09,3.53,1.43,3.7,3.63Z"/><path class="g" d="M43.73,169.9c-.01,1.05-.05,2.1-.03,3.14,0,.54-.13,.8-.73,.79-2.13-.04-4.26-.04-6.4-.05,0-1.15-.03-2.31,0-3.46,.04-2.02,1.54-3.57,3.5-3.65,1.84-.08,3.39,1.29,3.67,3.23Z"/><path class="g" d="M101.43,173.78c-2.13,.01-4.27,0-6.4,.05-.61,.01-.74-.25-.73-.79,.02-1.05-.02-2.1-.03-3.14,.28-1.94,1.83-3.31,3.67-3.23,1.95,.08,3.45,1.63,3.5,3.65,.03,1.15,0,2.31,0,3.46Z"/></g></g></svg>